<?xml version="1.0" encoding="utf-8"?>
<svg baseProfile="tiny" height="1024" version="1.2" width="1024" xmlns="http://www.w3.org/2000/svg" xmlns:ev="http://www.w3.org/2001/xml-events" xmlns:xlink="http://www.w3.org/1999/xlink">
  <defs />
  <!-- Background circle for better visibility -->
  <circle cx="512" cy="512" r="480" fill="#F94C10" opacity="0.1" stroke="#F94C10" stroke-width="2"/>
  
  <!-- Your original logo paths with PlateMate brand colors -->
  <path d="M 607,759 L 607,785 Z" fill="none" stroke="#F94C10" stroke-width="2" />
  <path d="M 607,727 L 607,757 Z" fill="none" stroke="#F94C10" stroke-width="2" />
  <path d="M 542,723 L 542,768 Z" fill="none" stroke="#F94C10" stroke-width="2" />
  <path d="M 801,711 L 800,712 L 794,712 L 793,713 L 790,713 L 789,714 L 788,714 L 787,715 L 785,715 L 784,716 L 783,716 L 781,718 L 780,718 L 775,723 L 775,724 L 773,726 L 773,727 L 772,728 L 772,729 L 771,730 L 771,731 L 770,732 L 770,734 L 769,735 L 769,737 L 768,738 L 768,743 L 767,744 L 767,758 L 768,759 L 768,763 L 769,764 L 769,767 L 770,768 L 770,769 L 771,770 L 771,772 L 772,773 L 772,774 L 781,783 L 782,783 L 783,784 L 784,784 L 785,785 L 786,785 L 787,786 L 789,786 L 790,787 L 792,787 L 793,788 L 796,788 L 797,789 L 812,789 L 813,788 L 816,788 L 817,787 L 819,787 L 820,786 L 821,786 L 822,785 L 824,785 L 826,783 L 827,783 L 834,776 L 834,773 L 833,772 L 832,772 L 829,769 L 828,769 L 826,767 L 825,767 L 824,766 L 820,766 L 816,770 L 815,770 L 813,772 L 811,772 L 810,773 L 798,773 L 797,772 L 796,772 L 795,771 L 794,771 L 789,766 L 789,765 L 787,763 L 787,761 L 786,760 L 786,756 L 787,755 L 836,755 L 837,754 L 837,744 L 836,743 L 836,738 L 835,737 L 835,734 L 834,733 L 834,732 L 833,731 L 833,729 L 832,728 L 832,727 L 831,726 L 831,725 L 829,723 L 829,722 L 826,719 L 825,719 L 822,716 L 821,716 L 820,715 L 818,715 L 817,714 L 816,714 L 815,713 L 812,713 L 811,712 L 806,712 L 805,711 Z" fill="#F94C10" stroke="#F94C10" stroke-width="1" />
  <path d="M 669,711 L 668,712 L 662,712 L 661,713 L 659,713 L 658,714 L 656,714 L 655,715 L 654,715 L 653,716 L 651,716 L 649,718 L 648,718 L 646,720 L 645,720 L 642,723 L 642,724 L 641,725 L 641,728 L 643,730 L 644,730 L 647,733 L 648,733 L 650,735 L 654,735 L 658,731 L 659,731 L 661,729 L 662,729 L 663,728 L 666,728 L 667,727 L 674,727 L 675,728 L 677,728 L 679,730 L 680,730 L 682,732 L 682,733 L 683,734 L 683,735 L 684,736 L 684,741 L 683,742 L 669,742 L 668,743 L 662,743 L 661,744 L 658,744 L 657,745 L 654,745 L 653,746 L 651,746 L 650,747 L 649,747 L 648,748 L 647,748 L 645,750 L 644,750 L 641,753 L 641,754 L 639,756 L 639,757 L 638,758 L 638,760 L 637,761 L 637,773 L 638,774 L 638,776 L 639,777 L 639,778 L 640,779 L 640,780 L 644,784 L 645,784 L 647,786 L 649,786 L 650,787 L 652,787 L 653,788 L 656,788 L 657,789 L 668,789 L 669,788 L 672,788 L 673,787 L 674,787 L 675,786 L 677,786 L 678,785 L 679,785 L 681,783 L 682,783 L 684,781 L 685,782 L 685,787 L 686,787 L 687,788 L 701,788 L 702,787 L 703,787 L 703,746 L 702,745 L 702,736 L 701,735 L 701,731 L 700,730 L 700,729 L 699,728 L 699,726 L 698,725 L 698,724 L 697,723 L 697,722 L 691,716 L 690,716 L 689,715 L 688,715 L 687,714 L 685,714 L 684,713 L 682,713 L 681,712 L 675,712 L 674,711 Z" fill="#F94C10" stroke="#F94C10" stroke-width="1" />
  <path d="M 476,711 L 475,712 L 469,712 L 468,713 L 465,713 L 464,714 L 462,714 L 461,715 L 460,715 L 459,716 L 458,716 L 457,717 L 456,717 L 449,724 L 449,725 L 447,727 L 447,728 L 446,729 L 446,731 L 445,732 L 445,734 L 444,735 L 444,737 L 443,738 L 443,741 L 442,742 L 442,760 L 443,761 L 443,764 L 444,765 L 444,767 L 445,768 L 445,770 L 446,771 L 446,772 L 447,773 L 447,774 L 449,776 L 449,777 L 453,781 L 454,781 L 456,783 L 457,783 L 458,784 L 459,784 L 460,785 L 461,785 L 462,786 L 463,786 L 464,787 L 466,787 L 467,788 L 471,788 L 472,789 L 487,789 L 488,788 L 491,788 L 492,787 L 494,787 L 495,786 L 497,786 L 499,784 L 500,784 L 501,783 L 502,783 L 509,776 L 509,774 L 506,771 L 505,771 L 502,768 L 501,768 L 500,767 L 499,767 L 498,766 L 495,766 L 491,770 L 490,770 L 488,772 L 486,772 L 485,773 L 473,773 L 472,772 L 471,772 L 470,771 L 469,771 L 463,765 L 463,764 L 462,763 L 462,762 L 461,761 L 461,756 L 462,755 L 511,755 L 511,741 L 510,740 L 510,736 L 509,735 L 509,733 L 508,732 L 508,731 L 507,730 L 507,728 L 506,727 L 506,726 L 504,724 L 504,723 L 498,717 L 497,717 L 496,716 L 495,716 L 494,715 L 493,715 L 492,714 L 490,714 L 489,713 L 486,713 L 485,712 L 479,712 L 478,711 Z" fill="#F94C10" stroke="#F94C10" stroke-width="1" />
  <path d="M 346,711 L 345,712 L 338,712 L 337,713 L 335,713 L 334,714 L 332,714 L 331,715 L 329,715 L 328,716 L 327,716 L 325,718 L 324,718 L 317,725 L 317,728 L 319,730 L 320,730 L 323,733 L 324,733 L 326,735 L 330,735 L 335,730 L 336,730 L 337,729 L 338,729 L 339,728 L 341,728 L 342,727 L 349,727 L 350,728 L 352,728 L 353,729 L 354,729 L 358,733 L 358,734 L 359,735 L 359,737 L 360,738 L 360,741 L 359,742 L 344,742 L 343,743 L 337,743 L 336,744 L 333,744 L 332,745 L 330,745 L 329,746 L 327,746 L 326,747 L 325,747 L 324,748 L 323,748 L 322,749 L 321,749 L 316,754 L 316,755 L 314,757 L 314,759 L 313,760 L 313,764 L 312,765 L 312,770 L 313,771 L 313,774 L 314,775 L 314,777 L 315,778 L 315,779 L 318,782 L 318,783 L 319,783 L 321,785 L 322,785 L 323,786 L 324,786 L 325,787 L 327,787 L 328,788 L 331,788 L 332,789 L 342,789 L 343,788 L 347,788 L 348,787 L 350,787 L 351,786 L 352,786 L 353,785 L 354,785 L 355,784 L 356,784 L 359,781 L 360,782 L 360,786 L 361,787 L 362,787 L 363,788 L 376,788 L 377,787 L 378,787 L 378,741 L 377,740 L 377,734 L 376,733 L 376,730 L 375,729 L 375,727 L 374,726 L 374,725 L 373,724 L 373,723 L 372,722 L 372,721 L 367,716 L 366,716 L 365,715 L 364,715 L 363,714 L 361,714 L 360,713 L 358,713 L 357,712 L 351,712 L 350,711 Z" fill="#F94C10" stroke="#F94C10" stroke-width="1" />
  <path d="M 554,708 Z" fill="none" stroke="#F94C10" stroke-width="1" />
  <path d="M 730,692 L 729,693 L 724,693 L 724,695 L 723,696 L 723,713 L 722,714 L 712,714 L 711,715 L 711,727 L 712,728 L 712,729 L 722,729 L 723,730 L 723,764 L 724,765 L 724,772 L 725,773 L 725,776 L 726,777 L 726,779 L 727,780 L 727,781 L 732,786 L 733,786 L 734,787 L 735,787 L 736,788 L 738,788 L 739,789 L 755,789 L 756,788 L 758,788 L 759,787 L 760,787 L 761,786 L 763,786 L 764,785 L 764,783 L 763,782 L 763,780 L 762,779 L 762,777 L 761,776 L 761,774 L 760,773 L 760,772 L 758,772 L 757,773 L 747,773 L 743,769 L 743,768 L 742,767 L 742,730 L 743,729 L 760,729 L 760,728 L 761,727 L 761,716 L 760,715 L 760,714 L 743,714 L 742,713 L 742,693 L 738,693 L 737,692 L 734,692 L 733,693 L 731,693 Z" fill="#F94C10" stroke="#F94C10" stroke-width="1" />
  <path d="M 406,692 L 405,693 L 399,693 L 399,694 L 398,695 L 398,713 L 397,714 L 386,714 L 386,728 L 387,728 L 388,729 L 397,729 L 398,730 L 398,766 L 399,767 L 399,774 L 400,775 L 400,777 L 401,778 L 401,780 L 402,781 L 402,782 L 406,786 L 407,786 L 408,787 L 409,787 L 410,788 L 412,788 L 413,789 L 419,789 L 420,790 L 423,790 L 424,789 L 430,789 L 431,788 L 433,788 L 434,787 L 435,787 L 436,786 L 438,786 L 439,785 L 439,782 L 438,781 L 438,780 L 437,779 L 437,777 L 436,776 L 436,774 L 435,773 L 435,772 L 433,772 L 432,773 L 422,773 L 417,768 L 417,730 L 418,729 L 434,729 L 435,728 L 435,725 L 436,724 L 436,723 L 435,722 L 435,714 L 418,714 L 417,713 L 417,695 L 416,694 L 416,693 L 413,693 L 412,692 L 408,692 L 407,693 Z" fill="#F94C10" stroke="#F94C10" stroke-width="1" />
  <path d="M 621,690 L 621,729 Z" fill="none" stroke="#F94C10" stroke-width="2" />
  <path d="M 203,688 L 202,689 L 201,689 L 201,787 L 202,787 L 203,788 L 218,788 L 219,787 L 220,787 L 220,755 L 221,754 L 240,754 L 241,753 L 247,753 L 248,752 L 251,752 L 252,751 L 253,751 L 254,750 L 255,750 L 256,749 L 258,749 L 260,747 L 261,747 L 267,741 L 267,740 L 268,739 L 268,738 L 269,737 L 269,736 L 270,735 L 270,733 L 271,732 L 271,730 L 272,729 L 272,713 L 271,712 L 271,710 L 270,709 L 270,707 L 269,706 L 269,705 L 268,704 L 268,703 L 267,702 L 267,701 L 261,695 L 260,695 L 258,693 L 257,693 L 256,692 L 254,692 L 253,691 L 252,691 L 251,690 L 248,690 L 247,689 L 241,689 L 240,688 Z" fill="#F94C10" stroke="#F94C10" stroke-width="1" />
  <path d="M 527,687 L 525,689 L 525,786 L 527,788 L 543,788 L 544,787 L 544,781 L 545,780 L 544,779 L 544,720 L 544,779 L 545,780 L 544,781 L 544,787 L 543,788 L 527,788 L 525,786 L 525,689 L 527,687 L 543,687 L 544,688 L 545,688 L 546,689 L 546,690 L 548,692 L 548,693 L 549,694 L 549,695 L 550,696 L 550,697 L 551,698 L 551,699 L 552,700 L 552,701 L 553,702 L 553,703 L 554,704 L 554,705 L 553,706 L 554,705 L 556,707 L 556,708 L 557,709 L 557,710 L 558,711 L 558,712 L 559,713 L 559,714 L 560,715 L 560,716 L 561,717 L 561,718 L 562,719 L 562,720 L 564,722 L 564,723 L 565,724 L 565,725 L 566,726 L 566,727 L 567,728 L 567,729 L 568,730 L 568,731 L 569,732 L 569,733 L 571,735 L 571,736 L 572,737 L 572,738 L 573,739 L 573,740 L 575,740 L 575,739 L 576,738 L 576,737 L 577,736 L 577,735 L 579,733 L 579,732 L 580,731 L 580,730 L 581,729 L 581,728 L 582,727 L 582,726 L 583,725 L 583,724 L 585,722 L 585,721 L 586,720 L 586,719 L 587,718 L 587,717 L 588,716 L 588,715 L 590,713 L 590,712 L 591,711 L 591,710 L 592,709 L 592,708 L 593,707 L 593,706 L 594,705 L 594,704 L 595,703 L 595,702 L 596,701 L 596,700 L 597,699 L 597,698 L 599,696 L 599,695 L 600,694 L 600,693 L 601,692 L 601,691 L 605,687 L 621,687 L 623,689 L 623,787 L 622,788 L 607,788 L 605,786 L 605,721 L 604,720 L 604,719 L 604,720 L 603,721 L 603,722 L 602,723 L 602,724 L 601,725 L 601,726 L 600,727 L 600,728 L 599,729 L 599,730 L 598,731 L 598,732 L 597,733 L 597,734 L 596,735 L 596,736 L 595,737 L 595,738 L 593,740 L 593,742 L 591,744 L 591,745 L 590,746 L 590,747 L 589,748 L 589,749 L 588,750 L 588,751 L 587,752 L 587,753 L 586,754 L 586,755 L 585,756 L 585,757 L 584,758 L 584,759 L 583,760 L 583,761 L 582,762 L 582,763 L 581,764 L 581,765 L 577,769 L 575,769 L 574,768 L 570,768 L 568,766 L 568,765 L 567,764 L 567,763 L 565,761 L 565,760 L 564,759 L 564,758 L 563,757 L 563,756 L 562,755 L 562,754 L 561,753 L 561,752 L 560,751 L 560,750 L 559,749 L 559,747 L 557,745 L 557,743 L 555,741 L 555,740 L 554,739 L 554,737 L 553,736 L 553,735 L 551,733 L 551,731 L 550,730 L 550,729 L 548,727 L 548,725 L 547,724 L 547,723 L 546,722 L 546,721 L 546,723 L 547,724 L 547,725 L 548,726 L 548,727 L 549,728 L 549,729 L 550,730 L 550,731 L 551,732 L 551,733 L 552,734 L 552,735 L 553,736 L 553,737 L 554,738 L 554,739 L 555,740 L 555,741 L 556,742 L 556,743 L 557,744 L 557,745 L 558,746 L 558,747 L 559,748 L 559,750 L 560,751 L 560,752 L 561,753 L 561,754 L 562,755 L 562,756 L 563,757 L 563,758 L 565,760 L 565,761 L 566,762 L 566,763 L 567,764 L 567,765 L 568,766 L 568,767 L 569,768 L 574,768 L 575,769 L 577,769 L 578,768 L 579,768 L 581,766 L 581,765 L 582,764 L 582,763 L 583,762 L 583,760 L 585,758 L 585,757 L 586,756 L 586,755 L 587,754 L 587,753 L 588,752 L 588,751 L 589,750 L 589,749 L 590,748 L 590,747 L 591,746 L 591,745 L 593,743 L 593,741 L 595,739 L 595,738 L 596,737 L 596,736 L 597,735 L 597,734 L 598,733 L 598,732 L 599,731 L 599,730 L 600,729 L 600,728 L 601,727 L 601,726 L 602,725 L 602,724 L 603,723 L 603,721 L 604,720 L 605,721 L 605,787 L 606,787 L 607,788 L 622,788 L 623,787 L 623,688 L 622,688 L 621,687 L 605,687 L 604,688 L 603,688 L 601,690 L 601,691 L 600,692 L 600,693 L 599,694 L 599,695 L 597,697 L 597,698 L 596,699 L 596,700 L 595,701 L 595,702 L 594,703 L 594,704 L 593,705 L 593,706 L 592,707 L 592,708 L 591,709 L 591,710 L 590,711 L 590,712 L 588,714 L 588,715 L 587,716 L 587,717 L 586,718 L 586,719 L 585,720 L 585,721 L 583,723 L 583,724 L 582,725 L 582,726 L 581,727 L 581,728 L 580,729 L 580,730 L 579,731 L 579,732 L 577,734 L 577,735 L 576,736 L 576,737 L 575,738 L 575,739 L 574,740 L 573,739 L 573,738 L 572,737 L 572,736 L 571,735 L 571,734 L 569,732 L 569,731 L 568,730 L 568,729 L 567,728 L 567,727 L 566,726 L 566,725 L 565,724 L 565,723 L 564,722 L 564,721 L 562,719 L 562,718 L 561,717 L 561,716 L 560,715 L 560,714 L 558,712 L 558,710 L 557,709 L 557,708 L 556,707 L 556,706 L 554,704 L 554,703 L 553,702 L 553,701 L 552,700 L 552,699 L 551,698 L 551,697 L 550,696 L 550,695 L 548,693 L 548,691 L 546,689 L 546,688 L 544,688 L 543,687 Z" fill="#F94C10" stroke="#F94C10" stroke-width="1" />
  <path d="M 283,687 L 282,688 L 281,688 L 281,787 L 282,787 L 283,788 L 298,788 L 300,786 L 300,689 L 298,687 Z" fill="#F94C10" stroke="#F94C10" stroke-width="1" />
  <path d="M 391,277 L 390,278 L 378,278 L 377,279 L 370,279 L 369,280 L 363,280 L 362,281 L 358,281 L 357,282 L 354,282 L 353,283 L 350,283 L 349,284 L 346,284 L 345,285 L 342,285 L 341,286 L 339,286 L 338,287 L 336,287 L 335,288 L 333,288 L 332,289 L 330,289 L 329,290 L 327,290 L 326,291 L 325,291 L 324,292 L 322,292 L 321,293 L 320,293 L 319,294 L 318,294 L 317,295 L 315,295 L 314,296 L 313,296 L 312,297 L 311,297 L 310,298 L 309,298 L 308,299 L 307,299 L 306,300 L 305,300 L 304,301 L 303,301 L 302,302 L 301,302 L 299,304 L 298,304 L 297,305 L 296,305 L 294,307 L 293,307 L 291,309 L 290,309 L 288,311 L 287,311 L 285,313 L 284,313 L 281,316 L 280,316 L 277,319 L 276,319 L 270,325 L 269,325 L 252,342 L 252,343 L 247,348 L 247,349 L 244,352 L 244,353 L 241,356 L 241,357 L 239,359 L 239,360 L 237,362 L 237,363 L 235,365 L 235,366 L 233,368 L 233,369 L 232,370 L 232,371 L 231,372 L 231,373 L 229,375 L 229,376 L 228,377 L 228,378 L 227,379 L 227,381 L 225,383 L 225,385 L 224,386 L 224,387 L 223,388 L 223,389 L 222,390 L 222,392 L 221,393 L 221,394 L 220,395 L 220,397 L 219,398 L 219,399 L 218,400 L 218,402 L 217,403 L 217,405 L 216,406 L 216,408 L 215,409 L 215,411 L 214,412 L 214,415 L 213,416 L 213,419 L 212,420 L 212,423 L 211,424 L 211,428 L 210,429 L 210,434 L 209,435 L 209,442 L 208,443 L 208,453 L 207,454 L 207,473 L 208,474 L 208,484 L 209,485 L 209,492 L 210,493 L 210,499 L 211,500 L 211,503 L 212,504 L 212,508 L 213,509 L 213,512 L 214,513 L 214,515 L 215,516 L 215,519 L 216,520 L 216,522 L 217,523 L 217,525 L 218,526 L 218,528 L 219,529 L 219,531 L 220,532 L 220,533 L 221,534 L 221,536 L 222,537 L 222,538 L 223,539 L 223,540 L 224,541 L 224,543 L 225,544 L 225,545 L 226,546 L 226,547 L 227,548 L 227,550 L 229,552 L 229,553 L 228,554 L 228,557 L 227,558 L 227,562 L 226,563 L 226,566 L 225,567 L 225,570 L 224,571 L 224,574 L 223,575 L 223,578 L 222,579 L 222,582 L 221,583 L 221,586 L 220,587 L 220,590 L 219,591 L 219,594 L 218,595 L 218,598 L 217,599 L 217,602 L 216,603 L 216,606 L 215,607 L 215,610 L 214,611 L 214,614 L 213,615 L 213,618 L 212,619 L 212,629 L 213,630 L 213,631 L 214,632 L 214,633 L 217,636 L 218,636 L 219,637 L 221,637 L 222,638 L 228,638 L 229,637 L 232,637 L 233,636 L 237,636 L 238,635 L 241,635 L 242,634 L 245,634 L 246,633 L 249,633 L 250,632 L 254,632 L 255,631 L 258,631 L 259,630 L 262,630 L 263,629 L 266,629 L 267,628 L 271,628 L 272,627 L 275,627 L 276,626 L 279,626 L 280,625 L 283,625 L 284,624 L 288,624 L 289,623 L 292,623 L 293,622 L 297,622 L 298,623 L 299,623 L 301,625 L 302,625 L 303,626 L 304,626 L 305,627 L 306,627 L 308,629 L 309,629 L 310,630 L 311,630 L 312,631 L 313,631 L 314,632 L 316,632 L 317,633 L 318,633 L 319,634 L 320,634 L 321,635 L 323,635 L 324,636 L 325,636 L 326,637 L 327,637 L 328,638 L 330,638 L 331,639 L 332,639 L 333,640 L 335,640 L 336,641 L 338,641 L 339,642 L 341,642 L 342,643 L 344,643 L 345,644 L 348,644 L 349,645 L 351,645 L 352,646 L 356,646 L 357,647 L 360,647 L 361,648 L 366,648 L 367,649 L 372,649 L 373,650 L 380,650 L 381,651 L 419,651 L 420,650 L 427,650 L 428,649 L 433,649 L 434,648 L 438,648 L 439,647 L 442,647 L 443,646 L 447,646 L 448,645 L 450,645 L 451,644 L 454,644 L 455,643 L 457,643 L 458,642 L 460,642 L 461,641 L 463,641 L 464,640 L 466,640 L 467,639 L 468,639 L 469,638 L 471,638 L 472,637 L 473,637 L 474,636 L 476,636 L 477,635 L 478,635 L 479,634 L 480,634 L 481,633 L 483,633 L 484,632 L 485,632 L 486,631 L 487,631 L 488,630 L 489,630 L 491,628 L 492,628 L 493,627 L 494,627 L 495,626 L 496,626 L 498,624 L 499,624 L 500,623 L 501,623 L 503,621 L 504,621 L 506,619 L 507,619 L 509,617 L 510,617 L 513,614 L 514,614 L 517,611 L 518,611 L 522,607 L 523,607 L 544,586 L 544,585 L 548,581 L 548,580 L 552,576 L 552,575 L 554,573 L 554,572 L 557,569 L 557,568 L 558,567 L 558,566 L 560,564 L 560,563 L 562,561 L 562,560 L 563,559 L 563,558 L 565,556 L 565,555 L 566,554 L 566,553 L 567,552 L 567,551 L 568,550 L 568,549 L 569,548 L 569,547 L 570,546 L 570,545 L 571,544 L 571,542 L 572,541 L 572,540 L 573,539 L 573,538 L 574,537 L 574,536 L 575,535 L 575,533 L 576,532 L 576,531 L 577,530 L 577,528 L 578,527 L 578,525 L 579,524 L 579,522 L 580,521 L 580,519 L 581,518 L 581,516 L 582,515 L 582,512 L 583,511 L 583,508 L 584,507 L 584,503 L 585,502 L 585,498 L 586,497 L 586,492 L 587,491 L 587,485 L 588,484 L 588,473 L 589,472 L 589,457 L 588,456 L 588,444 L 587,443 L 587,436 L 586,435 L 586,430 L 585,429 L 585,425 L 584,424 L 584,421 L 583,420 L 583,417 L 582,416 L 582,413 L 581,412 L 581,410 L 580,409 L 580,406 L 579,405 L 579,403 L 578,402 L 578,401 L 577,400 L 577,398 L 576,397 L 576,395 L 575,394 L 575,393 L 574,392 L 574,391 L 573,390 L 573,388 L 572,387 L 572,386 L 571,385 L 571,384 L 570,383 L 570,382 L 569,381 L 569,379 L 567,377 L 567,376 L 566,375 L 566,374 L 565,373 L 565,372 L 564,371 L 564,370 L 562,368 L 562,367 L 561,366 L 561,365 L 559,363 L 559,362 L 557,360 L 557,359 L 555,357 L 555,356 L 552,353 L 552,352 L 549,349 L 549,348 L 544,343 L 544,342 L 527,325 L 526,325 L 521,320 L 520,320 L 516,316 L 515,316 L 512,313 L 511,313 L 509,311 L 508,311 L 505,308 L 504,308 L 503,307 L 502,307 L 500,305 L 499,305 L 498,304 L 497,304 L 495,302 L 494,302 L 493,301 L 492,301 L 491,300 L 490,300 L 489,299 L 488,299 L 487,298 L 486,298 L 485,297 L 484,297 L 483,296 L 482,296 L 481,295 L 479,295 L 478,294 L 477,294 L 476,293 L 475,293 L 474,292 L 472,292 L 471,291 L 470,291 L 469,290 L 467,290 L 466,289 L 464,289 L 463,288 L 461,288 L 460,287 L 458,287 L 457,286 L 455,286 L 454,285 L 451,285 L 450,284 L 447,284 L 446,283 L 443,283 L 442,282 L 439,282 L 438,281 L 433,281 L 432,280 L 427,280 L 426,279 L 419,279 L 418,278 L 405,278 L 404,277 Z" fill="#F94C10" stroke="#F94C10" stroke-width="1" />
  <path d="M 605,261 L 573,293 L 573,295 L 572,296 L 572,298 L 573,299 L 573,301 L 603,331 L 604,331 L 605,332 L 611,332 L 612,331 L 613,331 L 643,301 L 643,300 L 644,299 L 644,293 L 612,261 Z" fill="#43AA8B" stroke="#43AA8B" stroke-width="1" />
  
  <!-- Add "PlateMate" text below the logo -->
  <text x="512" y="900" font-family="Inter, Arial, sans-serif" font-size="72" font-weight="bold" text-anchor="middle" fill="#F94C10">PlateMate</text>
</svg>